# xmcd
#
# Track frame offsets:
# 150
# 23743
# 39381
# 53664
# 71322
# 89245
# 104043
# 116069
# 131247
# 146460
# 159245
# 175214
# 190761
# 205932
# 223026
#
# Disc length: 3287 seconds
#
#
# Revision: 1
# Processed by: cddbd v1.5.2PL0 Copyright (c) Steve Scherf et al.
# Submitted via: FreeRIP 2.951 
#
DISCID=db0cd50f
DTITLE=Bruno and Marrone - Ao Vivo Em Goiânia - Bruno and Marrone - Ao Vivo Em Goiânia
DYEAR=2006
DGENRE=Sertaneja
TTITLE0=Por Te Amar Demais
TTITLE1=Vê se Toma Juizo
TTITLE2=Amor de Ping Pong
TTITLE3=Por Um Gole A Mais
TTITLE4=Marianne
TTITLE5=Doce Desejo
TTITLE6=Me Namora
TTITLE7=Que Pescar Que Nada
TTITLE8=Não Posso Ter Medo de Amar
TTITLE9=Desiguais
TTITLE10=Tá Pegando
TTITLE11=O Sonho Não Acabou
TTITLE12=Porque Choras
TTITLE13=Essa História Eu Conheço
TTITLE14=Choram As Rosas
EXTD=
EXTT0=
EXTT1=
EXTT2=
EXTT3=
EXTT4=
EXTT5=
EXTT6=
EXTT7=
EXTT8=
EXTT9=
EXTT10=
EXTT11=
EXTT12=
EXTT13=
EXTT14=
PLAYORDER=
